PathFileType	4	(X/Y/Z)	C:/Users/opensim2020/Desktop/walking_exp_matlab/subject06_walking16_straight_01.trc																																																																																																																																																							
DataRate	CameraRate	NumFrames	NumMarkers	Units	OrigDataRate	OrigDataStartFrame	OrigNumFrames																																																																																																																																																			
100	100	4	51	mm	100	912	333																																																																																																																																																			
Frame#	Time	LFHD			RFHD			LBHD			RBHD			C7			T10			CLAV			STRN			RBAK			LSHO			LUPA			LELB			LFRM			LWRA			LWRB			LFIN			RSHO			RUPA			RELB			RFRM			RWRA			RWRB			RFIN			LASI			RASI			LPSI			RPSI			LTHI			LKNE			LTIB			LANK			LHEE			LTOE			RTHI			RKNE			RTIB			RANK			RHEE			RTOE			*39			*40			*41			*42			*43			*44			*45			*46			*47			*48			*49			*50		
		X1	Y1	Z1	X2	Y2	Z2	X3	Y3	Z3	X4	Y4	Z4	X5	Y5	Z5	X6	Y6	Z6	X7	Y7	Z7	X8	Y8	Z8	X9	Y9	Z9	X10	Y10	Z10	X11	Y11	Z11	X12	Y12	Z12	X13	Y13	Z13	X14	Y14	Z14	X15	Y15	Z15	X16	Y16	Z16	X17	Y17	Z17	X18	Y18	Z18	X19	Y19	Z19	X20	Y20	Z20	X21	Y21	Z21	X22	Y22	Z22	X23	Y23	Z23	X24	Y24	Z24	X25	Y25	Z25	X26	Y26	Z26	X27	Y27	Z27	X28	Y28	Z28	X29	Y29	Z29	X30	Y30	Z30	X31	Y31	Z31	X32	Y32	Z32	X33	Y33	Z33	X34	Y34	Z34	X35	Y35	Z35	X36	Y36	Z36	X37	Y37	Z37	X38	Y38	Z38	X39	Y39	Z39	X40	Y40	Z40	X41	Y41	Z41	X42	Y42	Z42	X43	Y43	Z43	X44	Y44	Z44	X45	Y45	Z45	X46	Y46	Z46	X47	Y47	Z47	X48	Y48	Z48	X49	Y49	Z49	X50	Y50	Z50	X51	Y51	Z51
																																																																																																																																																										
42	0.41	-801.68341	1649.2998	-1034.7533	-806.94464	1635.75342	-904.25116	-937.77234	1599.64807	-1040.88623	-940.27124	1591.39111	-911.38788	-946.94598	1442.73608	-981.7915	-998.64624	1114.79028	-974.14886	-840.20984	1360.21729	-983.92889	-809.83441	1183.68445	-986.89478	-1025.57886	1278.23145	-893.75519	-897.23267	1394.4314	-1144.72339	-940.28052	1197.34387	-1215.53894	-969.33759	1088.63708	-1227.87903	-973.3479	939.90582	-1258.01465	-925.94055	815.61121	-1228.53345	-992.297	821.89832	-1258.45728	-963.66663	736.05762	-1268.0675	-874.92877	1396.9679	-821.55927	-905.64935	1198.89331	-728.74066	-891.49969	1077.29639	-716.40912	-862.33691	960.65094	-703.48364	-789.75629	831.34601	-744.71265	-838.56537	824.98932	-699.36182	-792.04004	755.06683	-703.43219	-814.32922	954.85559	-1077.90015	-829.87036	954.62482	-860.41138	-972.88879	978.99829	-1062.74548	-977.93182	983.33282	-894.2984	-825.32623	643.22247	-1152.71069	-776.26849	491.88568	-1123.46289	-729.10663	240.45531	-1126.12231	-670.53381	76.28695	-1091.6084	-701.31158	51.58902	-1042.70569	-522.26257	80.68322	-1090.43481	-926.36371	623.78754	-822.32141	-946.16882	498.77039	-844.52844	-1054.67993	250.82997	-858.13904	-1106.15259	71.4407	-913.08105	-1148.19336	50.93121	-958.60278	-955.18817	30.9663	-911.57806	-903.61896	1689.88257	-979.02112	NaN	NaN	NaN	NaN	NaN	NaN	NaN	NaN	NaN	NaN	NaN	NaN	NaN	NaN	NaN	NaN	NaN	NaN	NaN	NaN	NaN	NaN	NaN	NaN	NaN	NaN	NaN	NaN	NaN	NaN	NaN	NaN	NaN
43	0.42	-795.38403	1648.25964	-1036.51025	-800.84808	1634.86963	-906.39191	-931.76837	1598.77295	-1042.95129	-934.17902	1590.64221	-913.39044	-940.83258	1441.77026	-983.61627	-992.43213	1113.82581	-975.25439	-833.99457	1359.37793	-985.68695	-803.53088	1182.85193	-988.12299	-1019.3421	1277.48633	-895.13293	-891.63007	1393.46399	-1146.67053	-935.15302	1196.59314	-1216.90076	-964.53278	1087.80444	-1228.56885	-969.24432	939.04584	-1258.64502	-921.71674	814.81628	-1229.35535	-988.24957	821.02667	-1258.67346	-959.6814	735.06683	-1268.14734	-868.62939	1396.50232	-823.38586	-899.38837	1198.62769	-730.08429	-885.73981	1076.99939	-717.55603	-856.99506	960.12103	-704.44562	-785.52979	830.15094	-745.40381	-834.21008	824.4848	-699.7215	-788.08539	754.13416	-703.8576	-807.88428	954.06903	-1078.43005	-824.16711	953.79602	-861.15887	-966.23773	978.17651	-1063.99097	-972.03949	982.28308	-895.56781	-819.43585	642.43311	-1153.7301	-771.33832	490.66211	-1124.77307	-727.43237	237.63435	-1127.95898	-667.98901	74.40145	-1093.21045	-698.97504	49.94238	-1044.16174	-519.79175	77.90823	-1092.57568	-920.78516	622.72772	-823.22095	-940.70105	497.72333	-845.28564	-1051.6322	250.82222	-858.74628	-1105.56348	72.1373	-913.00854	-1147.98474	52.1703	-958.38293	-955.10126	30.85724	-911.68542	-897.49432	1689.01782	-981.11774	NaN	NaN	NaN	NaN	NaN	NaN	NaN	NaN	NaN	NaN	NaN	NaN	NaN	NaN	NaN	NaN	NaN	NaN	NaN	NaN	NaN	NaN	NaN	NaN	NaN	NaN	NaN	NaN	NaN	NaN	NaN	NaN	NaN
44	0.43	-789.31641	1647.42822	-1039.03967	-794.70172	1633.97192	-908.53265	-925.60577	1597.99023	-1045.04712	-927.91266	1589.84155	-915.53363	-934.65002	1440.86157	-985.52539	-986.05859	1112.90576	-976.47601	-827.61469	1358.51038	-987.48645	-797.08051	1181.96167	-989.36066	-1012.95697	1276.72742	-896.6637	-885.53308	1392.37378	-1148.36438	-929.75452	1195.66174	-1217.93115	-959.33258	1086.88086	-1229.48755	-964.39716	938.07422	-1258.94531	-916.96124	813.88666	-1229.9873	-983.82172	820.13483	-1258.92651	-955.23352	734.08276	-1268.32043	-862.27332	1395.96082	-825.25775	-893.10486	1198.38623	-731.53772	-879.81299	1076.69946	-718.8407	-851.78577	959.69202	-705.42261	-781.22772	829.07336	-746.03967	-829.79224	823.94916	-700.08063	-784.37872	753.28528	-704.25903	-800.99219	953.26654	-1079.0271	-818.60925	952.9281	-861.7876	-959.49072	977.42084	-1065.20374	-966.01514	981.21796	-896.89667	-813.41577	641.61157	-1154.78223	-766.34778	489.34592	-1126.05322	-722.1803	237.29297	-1129.47119	-666.12836	72.33006	-1094.99866	-697.24677	48.02695	-1045.98071	-518.04443	74.52274	-1094.69092	-915.23419	621.82251	-824.08582	-935.37262	496.81345	-845.94757	-1048.56531	250.93513	-859.26367	-1104.95044	73.02489	-912.88965	-1147.77856	53.58097	-958.05682	-954.9953	30.74428	-911.75903	-891.23566	1688.28711	-983.29089	NaN	NaN	NaN	NaN	NaN	NaN	NaN	NaN	NaN	NaN	NaN	NaN	NaN	NaN	NaN	NaN	NaN	NaN	NaN	NaN	NaN	NaN	NaN	NaN	NaN	NaN	NaN	NaN	NaN	NaN	NaN	NaN	NaN
45	0.44	-782.75415	1646.31799	-1040.84448	-788.30603	1633.17834	-910.86774	-919.31659	1597.1333	-1047.30444	-921.71027	1589.19031	-917.67743	-928.24384	1439.87964	-987.57098	-979.60291	1111.98657	-977.81848	-821.22144	1357.63855	-989.35968	-790.55377	1181.12695	-990.65778	-1006.53333	1275.97168	-898.29944	-878.98029	1391.23218	-1150.0741	-923.85345	1194.61584	-1219.0459	-954.03265	1086.0238	-1230.26208	-959.39148	937.06384	-1259.52222	-911.80377	812.89813	-1230.61536	-978.9151	819.16565	-1259.13879	-950.48248	732.98199	-1268.53503	-855.93793	1395.4884	-827.2124	-886.91241	1198.16028	-732.97516	-873.9718	1076.45776	-720.14514	-846.64441	959.31061	-706.37592	-776.80566	828.10431	-746.7265	-825.45105	823.42578	-700.73358	-780.28088	752.32275	-704.65814	-794.11432	952.53571	-1079.64929	-812.95032	952.09052	-862.4505	-952.69568	976.59528	-1066.49878	-959.87183	980.17273	-898.24805	-807.23767	640.74286	-1155.85315	-761.23053	488.02115	-1127.44641	-719.49078	235.51668	-1131.20044	-665.026	69.98389	-1096.82031	-696.64655	46.16994	-1047.69751	-517.09924	70.56692	-1096.59766	-909.55957	620.92761	-824.90637	-929.82794	495.89832	-846.7511	-1045.51123	251.19627	-859.66071	-1104.35583	74.07903	-912.64447	-1147.53625	55.13713	-957.65039	-954.9328	30.61137	-911.83087	-884.84198	1687.41443	-985.5954	NaN	NaN	NaN	NaN	NaN	NaN	NaN	NaN	NaN	NaN	NaN	NaN	NaN	NaN	NaN	NaN	NaN	NaN	NaN	NaN	NaN	NaN	NaN	NaN	NaN	NaN	NaN	NaN	NaN	NaN	NaN	NaN	NaN
